<svg xmlns="http://www.w3.org/2000/svg" width="24" height="24" viewBox="0 0 24 24">
  <g id="Group_2992" data-name="Group 2992" transform="translate(-2308 103)">
    <path id="Path_755" data-name="Path 755" d="M-545.249,2468.583v-4.67l-10,10,10,10v-4.67l4.67,4.67v-5.377a4.66,4.66,0,0,0,4.2-4.623,4.659,4.659,0,0,0-4.2-4.622v-5.378Zm3.736-2.416v3.123a4.652,4.652,0,0,0-3.736,2.624V2469.9Zm0,4.057v7.378a3.729,3.729,0,0,1-3.269-3.689A3.728,3.728,0,0,1-541.513,2470.225Zm-4.67,6.764-3.076-3.076,3.076-3.076Zm0,4.67-7.745-7.746,7.745-7.746v3.349l-4.4,4.4,4.4,4.4Zm.934-3.736v-2.011a4.656,4.656,0,0,0,3.736,2.625v3.122Zm7.939-4.01a3.729,3.729,0,0,1-3.269,3.689v-7.378A3.728,3.728,0,0,1-537.31,2473.913Z" transform="translate(2866.249 -2564.913)" fill="#fff"/>
    <rect id="Rectangle_797" data-name="Rectangle 797" width="24" height="24" transform="translate(2308 -103)" fill="none"/>
  </g>
</svg>
